<?xml version="1.0" encoding="UTF-8"?>
<svg version="1.1" xmlns="http://www.w3.org/2000/svg" width="200" height="256">
<path d="M0 0 C2.5625 0.1875 2.5625 0.1875 4.5625 2.1875 C4.84960938 4.53149414 4.84960938 4.53149414 4.90625 7.47265625 C4.93404541 8.55119873 4.96184082 9.62974121 4.99047852 10.7409668 C5.01424561 11.89894775 5.0380127 13.05692871 5.0625 14.25 C5.58981326 30.52185234 7.43238264 45.47652308 11.4375 61.25 C11.69371628 62.26929092 11.69371628 62.26929092 11.95510864 63.30917358 C14.77118482 75.72780774 14.77118482 75.72780774 21.5625 86.1875 C24.43487733 86.77192963 24.43487733 86.77192963 27.5625 86.1875 C29.54773347 84.57785124 30.92922542 83.12049784 32.5625 81.1875 C33.2328125 80.45917969 33.903125 79.73085937 34.59375 78.98046875 C40.34629934 72.72555637 45.68876161 66.18917987 50.890625 59.47265625 C53.80466122 55.81068407 57.10789892 52.87166354 60.6953125 49.8984375 C62.64767918 48.22594536 62.64767918 48.22594536 64.140625 45.99609375 C64.60984375 45.39925781 65.0790625 44.80242188 65.5625 44.1875 C68.1875 43.875 68.1875 43.875 70.5625 44.1875 C71.5625 45.1875 71.5625 45.1875 71.7890625 48.33984375 C71.54646514 52.45981614 70.62898679 55.00704333 68.9375 58.75 C66.1411101 65.25550796 64.09781955 71.85511615 62.25 78.6875 C61.99589355 79.61892822 61.74178711 80.55035645 61.47998047 81.51000977 C59.24419398 89.94170626 58.41771639 97.79692618 58.5 106.5 C58.50676758 107.85834961 58.50676758 107.85834961 58.51367188 109.24414062 C58.52235705 110.90797259 58.53310403 112.57179606 58.54663086 114.2355957 C58.55734036 115.55286422 58.5625 116.87018795 58.5625 118.1875 C59.51125 118.105 60.46 118.0225 61.4375 117.9375 C72.18153306 117.98091023 80.88386768 125.27228302 88.0625 132.5 C100.90561727 147.10458648 102.5889671 163.55489061 101.5625 182.1875 C99.69240235 201.65729445 87.73339811 223.02033749 72.80078125 235.359375 C55.11120363 249.40935819 35.79030585 256.3574309 13.22753906 256.48266602 C11.79840126 256.49410814 10.36930352 256.51443495 8.94042969 256.54418945 C-4.17875923 256.81661809 -15.45134071 254.36099282 -27.0625 248.0625 C-27.77905762 247.67562012 -28.49561523 247.28874023 -29.23388672 246.89013672 C-46.496289 237.20937841 -56.80481641 220.12034263 -62.57421875 201.5234375 C-63.31960907 198.41825051 -63.93376873 195.34016293 -64.4375 192.1875 C-64.56640625 191.43726563 -64.6953125 190.68703125 -64.828125 189.9140625 C-65.84162752 182.73953149 -65.5231959 175.41452113 -65.4375 168.1875 C-71.94536153 176.1341701 -77.30897108 184.68761756 -82.74023438 193.38867188 C-83.41763672 194.46310547 -84.09503906 195.53753906 -84.79296875 196.64453125 C-85.39778076 197.61366455 -86.00259277 198.58279785 -86.62573242 199.58129883 C-88.38856166 202.11710292 -90.08003543 204.19253973 -92.4375 206.1875 C-96.7375 205.8875 -96.7375 205.8875 -98.4375 204.1875 C-98.12352163 197.63776521 -96.24329201 192.95883644 -93.125 187.25 C-92.682771 186.42733643 -92.24054199 185.60467285 -91.78491211 184.75708008 C-87.00485599 176.07673788 -81.38916607 168.09435002 -75.4375 160.1875 C-74.9719873 159.55972656 -74.50647461 158.93195313 -74.02685547 158.28515625 C-65.53774648 146.87386374 -55.40300504 133.67025252 -42.4375 127.1875 C-42.79465088 126.47319824 -43.15180176 125.75889648 -43.51977539 125.02294922 C-44.58138021 122.89973958 -45.64280725 120.77644104 -46.70410156 118.65307617 C-47.90616966 116.2487336 -49.11011977 113.84534591 -50.31542969 111.44262695 C-55.41367993 101.27327507 -55.41367993 101.27327507 -57.54296875 96.80078125 C-60.97052494 89.66071764 -64.86936046 83.43397695 -69.6171875 77.125 C-71.55544862 73.99716231 -72.2813518 71.85177777 -72.4375 68.1875 C-70.4375 66.1875 -70.4375 66.1875 -68.125 65.75 C-64.32235932 66.36903453 -63.054113 68.41812067 -60.4375 71.1875 C-54.96595472 76.92332385 -49.40302548 82.21085789 -43.1875 87.125 C-42.60943604 87.58535645 -42.03137207 88.04571289 -41.43579102 88.52001953 C-35.61856998 93.03256034 -31.02853872 95.64296232 -23.4375 95.1875 C-21.17531852 91.07514025 -19.99347978 87.71809754 -19.47265625 83.0625 C-19.31829102 81.82363037 -19.16392578 80.58476074 -19.00488281 79.30834961 C-18.92387329 78.64044403 -18.84286377 77.97253845 -18.75939941 77.28439331 C-16.62247226 60.0102284 -12.99709299 43.09776172 -9.1875 26.125 C-8.91334259 24.89740967 -8.63918518 23.66981934 -8.35671997 22.4050293 C-7.57219474 18.9026814 -6.78047627 15.40207697 -5.984375 11.90234375 C-5.7428923 10.83410873 -5.50140961 9.76587372 -5.25260925 8.66526794 C-5.02841812 7.69283646 -4.80422699 6.72040497 -4.57324219 5.71850586 C-4.37736511 4.86397324 -4.18148804 4.00944061 -3.97967529 3.12901306 C-3.18768026 0.29290319 -3.00439264 0.23110713 0 0 Z M-3.4375 36.1875 C-4.38910998 40.70545421 -5.32515981 45.22649761 -6.25 49.75 C-6.38855408 50.4265564 -6.52710815 51.10311279 -6.66986084 51.8001709 C-8.6852964 61.70756298 -10.35440031 71.57631023 -11.32348633 81.65063477 C-12.10970134 88.95573875 -13.84138832 96.07216598 -18.625 101.8125 C-23.35941514 104.12710296 -27.69012474 104.03065999 -32.703125 102.4921875 C-38.39680819 100.1231375 -43.42334597 96.74363761 -48.4375 93.1875 C-48.7675 93.8475 -49.0975 94.5075 -49.4375 95.1875 C-48.5246197 97.34752043 -47.50300419 99.46182469 -46.4375 101.55078125 C-45.79135245 102.84294188 -45.14552934 104.13526479 -44.5 105.42773438 C-43.47120149 107.46447073 -42.43810476 109.49881847 -41.3984375 111.5300293 C-40.39931479 113.48942524 -39.41760965 115.45682219 -38.4375 117.42578125 C-37.5403125 119.189823 -37.5403125 119.189823 -36.625 120.98950195 C-35.37537742 124.35479926 -35.32710996 125.83227669 -36.4375 129.1875 C-33.94388429 127.98368552 -31.75606917 126.73321278 -29.4375 125.1875 C-27.17578125 125.2109375 -27.17578125 125.2109375 -24.75 125.5625 C-23.94175781 125.67335938 -23.13351563 125.78421875 -22.30078125 125.8984375 C-21.68589844 125.99382812 -21.07101563 126.08921875 -20.4375 126.1875 C-19.7775 124.8675 -19.1175 123.5475 -18.4375 122.1875 C-19.9225 121.6925 -19.9225 121.6925 -21.4375 121.1875 C-21.4375 119.5375 -21.4375 117.8875 -21.4375 116.1875 C-17.12601581 115.36954831 -12.81314715 114.55913303 -8.5 113.75 C-7.28763672 113.51990234 -6.07527344 113.28980469 -4.82617188 113.05273438 C7.8235311 110.68734276 19.78033854 110.05660182 32.625 110.125 C34.27018093 110.1300242 35.91536335 110.13458548 37.56054688 110.13867188 C41.56123498 110.14960658 45.56185088 110.1668207 49.5625 110.1875 C49.69205078 108.36992187 49.69205078 108.36992187 49.82421875 106.515625 C50.77881028 94.67559143 52.90375387 83.59887071 56.04345703 72.15283203 C56.65209104 69.8482677 57.14074286 67.5332279 57.5625 65.1875 C54.14161629 67.77675508 51.42961426 70.35558044 48.8125 73.75 C48.12800781 74.62011719 47.44351563 75.49023438 46.73828125 76.38671875 C45.25075949 78.30153581 43.76925548 80.2210389 42.29296875 82.14453125 C34.45386929 92.12035288 34.45386929 92.12035288 28.5625 94.1875 C23.3477603 94.56236148 19.66318472 93.86014066 15.1875 91.125 C10.16242145 85.50169781 7.96793732 79.01454518 6.23828125 71.77734375 C6.04654831 71.00620743 5.85481537 70.23507111 5.65727234 69.44056702 C5.25722005 67.82402107 4.86166212 66.20635669 4.47045898 64.58764648 C3.87512254 62.12550681 3.2659493 59.66711617 2.65429688 57.20898438 C2.264815 55.62780347 1.87611629 54.0464294 1.48828125 52.46484375 C1.30912674 51.73861313 1.12997223 51.01238251 0.94538879 50.2641449 C0.13497025 46.89841236 -0.5011301 43.67949405 -0.93286133 40.23266602 C-1.09939209 39.22776123 -1.26592285 38.22285645 -1.4375 37.1875 C-2.0975 36.8575 -2.7575 36.5275 -3.4375 36.1875 Z M-7.4375 120.1875 C-4.9625 122.1675 -4.9625 122.1675 -2.4375 124.1875 C-1.61765625 123.45853516 -1.61765625 123.45853516 -0.78125 122.71484375 C3.58162193 119.87170554 8.5472003 120.63155876 13.5625 121.1875 C17.67451918 122.26399559 21.58693186 123.69666195 25.5625 125.1875 C26.88991051 125.54368849 28.22138223 125.88701371 29.5625 126.1875 C29.376875 124.90875 29.19125 123.63 29 122.3125 C28.4375 118.4375 28.4375 118.4375 29.5625 116.1875 C17.28948297 116.1875 4.59263471 117.80177708 -7.4375 120.1875 Z M36.5625 122.1875 C37.5525 123.1775 38.5425 124.1675 39.5625 125.1875 C39.8925 124.5275 40.2225 123.8675 40.5625 123.1875 C39.2425 122.8575 37.9225 122.5275 36.5625 122.1875 Z M5.5625 127.1875 C4.9025 127.8475 4.2425 128.5075 3.5625 129.1875 C3.8894756 131.80330479 4.38289068 133.82828137 5.5625 136.1875 C5.60272391 138.5204866 5.60570247 140.85456666 5.5625 143.1875 C3.9125 143.1875 2.2625 143.1875 0.5625 143.1875 C0.25957031 142.60742188 -0.04335937 142.02734375 -0.35546875 141.4296875 C-2.98557998 136.52554164 -5.72052849 132.32926825 -9.4375 128.1875 C-11.0875 128.5175 -12.7375 128.8475 -14.4375 129.1875 C-17.24905732 136.1552725 -17.91393713 142.59132611 -18.2265625 150.02734375 C-18.4375 153.1875 -18.4375 153.1875 -19.4375 155.1875 C-21.0875 155.1875 -22.7375 155.1875 -24.4375 155.1875 C-25.41306564 152.26080309 -25.4981341 150.74688679 -25.31640625 147.73828125 C-25.26806641 146.89072266 -25.21972656 146.04316406 -25.16992188 145.16992188 C-25.11384766 144.28884766 -25.05777344 143.40777344 -25 142.5 C-24.94779297 141.60732422 -24.89558594 140.71464844 -24.84179688 139.79492188 C-24.7122182 137.5920844 -24.57725754 135.38971127 -24.4375 133.1875 C-28.94134823 133.1875 -29.29932292 133.46319617 -32.328125 136.4609375 C-36.9496315 141.32444133 -39.5167339 146.71908056 -42.1875 152.8125 C-48.48172621 166.79174462 -48.48172621 166.79174462 -51.4375 170.1875 C-54.6875 171.0625 -54.6875 171.0625 -57.4375 171.1875 C-58.2714563 192.96302551 -52.71510489 213.19864433 -38.5625 230.1875 C-34.38407582 234.57646493 -29.78048708 237.40177708 -24.4375 240.1875 C-23.32761719 240.79851562 -22.21773437 241.40953125 -21.07421875 242.0390625 C-10.27188794 247.85776322 -0.65281197 249.64165903 11.5625 249.1875 C12.73296875 249.18105469 13.9034375 249.17460937 15.109375 249.16796875 C36.02284769 248.60103726 53.96961654 240.99766051 69.5625 227.1875 C70.284375 226.57261719 71.00625 225.95773438 71.75 225.32421875 C85.12509475 213.12466944 93.4245575 192.49452835 94.3125 174.75 C94.36792969 173.95529297 94.42335937 173.16058594 94.48046875 172.34179688 C94.7859149 166.65401928 94.06264058 161.67515866 92.5625 156.1875 C91.82773438 156.39503906 91.09296875 156.60257813 90.3359375 156.81640625 C85.03243208 157.52603022 80.80307469 153.83552601 76.671875 150.796875 C72.71134412 147.54995329 69.40555289 143.85809647 66.140625 139.921875 C64.4832532 137.95981826 64.4832532 137.95981826 61.5625 136.1875 C63.71948218 143.73693762 66.80678216 148.13406929 73.5625 152.1875 C74.5625 153.1875 74.5625 153.1875 74.625 155.75 C74.604375 156.554375 74.58375 157.35875 74.5625 158.1875 C72.013805 159.15424638 70.87910121 159.30792834 68.29296875 158.32421875 C63.65877679 155.68322763 59.178426 152.95141877 54.80322266 149.89575195 C47.69960224 144.96506227 40.29894817 140.67855563 32.65917969 136.6340332 C30.91954653 135.71113258 29.18815554 134.77274835 27.45703125 133.83398438 C20.4772728 130.20141149 13.56666679 127.23402136 5.5625 127.1875 Z M65.5625 127.1875 C70.86112539 132.65433572 76.87159271 137.51829278 83.5625 141.1875 C82.07741624 137.6264927 80.07708829 135.58728977 77.1875 133.0625 C76.41664063 132.37929687 75.64578125 131.69609375 74.8515625 130.9921875 C71.64932254 128.46755463 69.67720339 127.1875 65.5625 127.1875 Z M-52.4375 151.1875 C-51.4375 153.1875 -51.4375 153.1875 -51.4375 153.1875 Z " fill="#FEFEFE" transform="translate(98.4375,-0.1875)"/>
<path d="M0 0 C4.55555556 0.55555556 4.55555556 0.55555556 6 2 C8.96614025 22.10383946 5.92536874 42.93553199 -6.125 59.75 C-10.58815685 65.12473 -15.17595692 68.5612511 -22.234375 69.37109375 C-35.0087948 69.61238835 -41.2055144 65.42944861 -50.3515625 56.80859375 C-59.16818338 47.45881438 -66.25894425 35.34926447 -66.0625 22.1875 C-66.05347656 21.39730469 -66.04445313 20.60710937 -66.03515625 19.79296875 C-66.02355469 19.20128906 -66.01195313 18.60960937 -66 18 C-64.68 17.34 -63.36 16.68 -62 16 C-59 18 -59 18 -58.26171875 20.6171875 C-57.97748047 22.22980469 -57.97748047 22.22980469 -57.6875 23.875 C-54.93109866 36.81437625 -48.13295273 49.10783909 -37.109375 56.77734375 C-32.52153272 59.43659307 -28.13985104 61.04195786 -22.8125 60.9375 C-16.10099428 58.70033143 -12.8465519 55.06350757 -9.453125 49.0625 C-5.20798796 40.11575957 -1.78738415 30.299338 -1.97265625 20.33203125 C-1.98490234 19.27435547 -1.99714844 18.21667969 -2.00976562 17.12695312 C-2.04510932 14.90553668 -2.08421117 12.68417704 -2.12695312 10.46289062 C-2.13791016 9.40908203 -2.14886719 8.35527344 -2.16015625 7.26953125 C-2.17699463 6.30635986 -2.19383301 5.34318848 -2.21118164 4.35083008 C-2 2 -2 2 0 0 Z " fill="#FFFEFE" transform="translate(138,153)"/>
<path d="M0 0 C2.5625 -0.25 2.5625 -0.25 5 0 C6 1 6 1 6.02172852 2.76586914 C5.97459717 3.51473389 5.92746582 4.26359863 5.87890625 5.03515625 C5.83056641 5.84404297 5.78222656 6.65292969 5.73242188 7.48632812 C5.67634766 8.33646484 5.62027344 9.18660156 5.5625 10.0625 C5.51029297 10.91650391 5.45808594 11.77050781 5.40429688 12.65039062 C5.27421239 14.76721995 5.13770029 16.88365244 5 19 C2.6875 20.125 2.6875 20.125 0 21 C-0.99 20.34 -1.98 19.68 -3 19 C-3.11076564 16.24882096 -3.04958602 13.78539699 -2.8125 11.0625 C-2.74579102 9.96905273 -2.74579102 9.96905273 -2.67773438 8.85351562 C-2.4029883 5.15292342 -2.09360533 3.140408 0 0 Z " fill="#FFFFFF" transform="translate(114,166)"/>
<path d="M0 0 C2.375 -0.125 2.375 -0.125 5 0 C7.36300349 2.36300349 7.51433444 3.5798498 8.125 6.8125 C8.29257813 7.66457031 8.46015625 8.51664063 8.6328125 9.39453125 C9.00049818 12.00353499 9.20528099 14.37151075 9 17 C8.34 17.66 7.68 18.32 7 19 C4.5 18.9375 4.5 18.9375 2 18 C0.21977328 14.47702502 -0.36219195 11.22152952 -0.6875 7.3125 C-0.77386719 6.35988281 -0.86023438 5.40726563 -0.94921875 4.42578125 C-1 2 -1 2 0 0 Z " fill="#FFFFFF" transform="translate(99,163)"/>
</svg>
